nColumns=28
nRows=46
DataType=double
version=3
OpenSimVersion=4.1
endheader
time	ground_force_1_vx	ground_force_1_vy	ground_force_1_vz	ground_force_1_px	ground_force_1_py	ground_force_1_pz	ground_force_1_mx	ground_force_1_my	ground_force_1_mz	ground_force_2_vx	ground_force_2_vy	ground_force_2_vz	ground_force_2_px	ground_force_2_py	ground_force_2_pz	ground_force_2_mx	ground_force_2_my	ground_force_2_mz	ground_force_3_vx	ground_force_3_vy	ground_force_3_vz	ground_force_3_px	ground_force_3_py	ground_force_3_pz	ground_force_3_mx	ground_force_3_my	ground_force_3_mz
6.72	-20.0069	281.597	-9.13606	-0.266497	0.006	-0.477152	0	-0.410198	0	-7.45864	45.567	3.39065	-0.089244	0.006	-0.679715	0	-0.770956	0	0	0	0	0	0	0	0	0	0
6.73	-18.2711	280.137	-8.82218	-0.268052	0.006	-0.476983	0	-0.278212	0	-6.17768	48.1793	2.90419	-0.09088	0.006	-0.68487	0	-0.657288	0	0	0	0	0	0	0	0	0	0
6.74	-16.1551	281.052	-8.79432	-0.269965	0.006	-0.476736	0	-0.0928123	0	-4.8592	52.1941	2.49226	-0.0929558	0.006	-0.691126	0	-0.475011	0	0	0	0	0	0	0	0	0	0
6.75	-13.3701	286.115	-9.15262	-0.272318	0.006	-0.476197	0	0.0971104	0	-3.38858	56.6474	2.26417	-0.0963785	0.006	-0.696185	0	-0.315826	0	0	0	0	0	0	0	0	0	0
6.76	-10.5656	299.388	-9.75384	-0.274728	0.006	-0.475401	0	0.321647	0	-1.90605	61.516	2.45121	-0.0991145	0.006	-0.700997	0	-0.168689	0	0	0	0	0	0	0	0	0	0
6.77	-7.96729	321.322	-10.7669	-0.27683	0.006	-0.474064	0	0.538506	0	-0.793465	67.7288	3.00897	-0.1011	0.006	-0.707196	0	-0.0295782	0	0	0	0	0	0	0	0	0	0
6.78	-5.77871	349.443	-12.4493	-0.278649	0.006	-0.472343	0	0.749637	0	0.199195	75.2807	3.71192	-0.103869	0.006	-0.713309	0	0.0315591	0	0	0	0	0	0	0	0	0	0
6.79	-4.52605	379.422	-14.7818	-0.279877	0.006	-0.470799	0	0.98825	0	1.46187	83.6702	4.52201	-0.107628	0.006	-0.71798	0	0.0639726	0	0	0	0	0	0	0	0	0	0
6.8	-5.07483	404.908	-17.2056	-0.280526	0.006	-0.469729	0	1.14776	0	2.41744	93.2455	5.66546	-0.111816	0.006	-0.723203	0	0.0945407	0	0	0	0	0	0	0	0	0	0
6.81	-7.23675	421.505	-19.0216	-0.280767	0.006	-0.468962	0	1.19208	0	2.51816	103.44	7.21334	-0.115748	0.006	-0.72809	0	0.11547	0	0	0	0	0	0	0	0	0	0
6.82	-9.68072	426.816	-20.2689	-0.280886	0.006	-0.468462	0	1.24579	0	2.12036	113.109	8.90917	-0.118593	0.006	-0.731555	0	0.123926	0	0	0	0	0	0	0	0	0	0
6.83	-10.7894	422.049	-21.4485	-0.281151	0.006	-0.468157	0	1.36037	0	1.72111	122.03	10.1907	-0.121018	0.006	-0.734051	0	0.15527	0	0	0	0	0	0	0	0	0	0
6.84	-10.3105	414.628	-22.6374	-0.281677	0.006	-0.46786	0	1.50201	0	1.34347	129.501	10.7972	-0.123408	0.006	-0.735287	0	0.220712	0	0	0	0	0	0	0	0	0	0
6.85	-9.42478	410.085	-23.0204	-0.282549	0.006	-0.467657	0	1.59329	0	0.203175	136.91	11.1219	-0.125707	0.006	-0.736386	0	0.325212	0	0	0	0	0	0	0	0	0	0
6.86	-8.67277	409.192	-21.9767	-0.28378	0.006	-0.467723	0	1.65085	0	-1.9484	145.986	11.6372	-0.127816	0.006	-0.738286	0	0.376441	0	0	0	0	0	0	0	0	0	0
6.87	-7.82853	415.438	-20.2716	-0.285456	0.006	-0.467965	0	1.70991	0	-4.36303	156.59	12.5704	-0.129831	0.006	-0.740354	0	0.33055	0	0	0	0	0	0	0	0	0	0
6.88	-6.72459	429.855	-19.1896	-0.287142	0.006	-0.467963	0	1.82569	0	-5.54249	167.136	14.145	-0.132226	0.006	-0.742372	0	0.227631	0	0	0	0	0	0	0	0	0	0
6.89	-6.25044	446.514	-19.0217	-0.288416	0.006	-0.467751	0	2.06358	0	-5.46202	176.013	16.2504	-0.135259	0.006	-0.744293	0	0.0919527	0	0	0	0	0	0	0	0	0	0
6.9	-6.82905	457.294	-19.0396	-0.289647	0.006	-0.467627	0	2.39304	0	-5.64829	183.546	18.9349	-0.139029	0.006	-0.74632	0	-0.0417612	0	0	0	0	0	0	0	0	0	0
6.91	-7.09035	458.349	-18.7281	-0.291067	0.006	-0.467677	0	2.6928	0	-6.7456	190.496	22.0273	-0.141796	0.006	-0.748253	0	-0.214873	0	0	0	0	0	0	0	0	0	0
6.92	-6.09602	453.047	-17.8043	-0.292568	0.006	-0.467872	0	2.93913	0	-8.6173	199.086	25.019	-0.143345	0.006	-0.749723	0	-0.3702	0	0	0	0	0	0	0	0	0	0
6.93	-4.17251	446.323	-16.7178	-0.294203	0.006	-0.468191	0	3.08692	0	-10.8345	210.953	27.6309	-0.144399	0.006	-0.751069	0	-0.511885	0	0	0	0	0	0	0	0	0	0
6.94	-3.00886	441.823	-15.7247	-0.295793	0.006	-0.468605	0	3.1582	0	-12.5038	222.595	29.4954	-0.145239	0.006	-0.752121	0	-0.644472	0	0	0	0	0	0	0	0	0	0
6.95	-4.11937	440.688	-14.613	-0.29696	0.006	-0.468908	0	3.1959	0	-13.726	230.773	30.2387	-0.145977	0.006	-0.752511	0	-0.677147	0	0	0	0	0	0	0	0	0	0
6.96	-6.88247	441.222	-13.831	-0.297855	0.006	-0.469035	0	3.17555	0	-15.797	235.124	29.9441	-0.146619	0.006	-0.752518	0	-0.599941	0	0	0	0	0	0	0	0	0	0
6.97	-8.6521	442.351	-13.7353	-0.298757	0.006	-0.469155	0	3.09884	0	-19.3818	235.814	29.0375	-0.146991	0.006	-0.752484	0	-0.508416	0	0	0	0	0	0	0	0	0	0
6.98	-8.8905	446.537	-14.2266	-0.299651	0.006	-0.469187	0	3.02587	0	-24.0857	233.491	27.9524	-0.147102	0.006	-0.752366	0	-0.457555	0	0	0	0	0	0	0	0	0	0
6.99	-9.56413	454.029	-15.4481	-0.300121	0.006	-0.468876	0	2.92583	0	-28.7707	229.271	26.8594	-0.146963	0.006	-0.751957	0	-0.451637	0	0	0	0	0	0	0	0	0	0
7	-11.9373	459.435	-16.7668	-0.300424	0.006	-0.468595	0	2.84094	0	-32.0911	224.75	25.6101	-0.146875	0.006	-0.751558	0	-0.442538	0	0	0	0	0	0	0	0	0	0
7.01	-14.8684	460.616	-17.366	-0.300828	0.006	-0.4684	0	2.8255	0	-33.9229	221.928	24.4132	-0.146935	0.006	-0.751379	0	-0.424263	0	0	0	0	0	0	0	0	0	0
7.02	-16.2259	459.519	-17.2196	-0.301307	0.006	-0.468164	0	2.83057	0	-35.7491	222.808	23.8336	-0.147458	0.006	-0.751623	0	-0.431468	0	0	0	0	0	0	0	0	0	0
7.03	-15.4803	457.357	-16.3729	-0.301854	0.006	-0.467987	0	2.78659	0	-38.5987	228.199	24.275	-0.148535	0.006	-0.752275	0	-0.42573	0	0	0	0	0	0	0	0	0	0
7.04	-14.5987	455.788	-15.0372	-0.302241	0.006	-0.468015	0	2.71569	0	-41.8072	236.936	25.4811	-0.149885	0.006	-0.753163	0	-0.372254	0	0	0	0	0	0	0	0	0	0
7.05	-15.595	456.082	-13.4993	-0.302354	0.006	-0.468121	0	2.58288	0	-43.7009	246.7	26.7921	-0.151568	0.006	-0.753955	0	-0.353831	0	0	0	0	0	0	0	0	0	0
7.06	-18.466	459.098	-12.2778	-0.302227	0.006	-0.468267	0	2.36357	0	-43.3759	256.045	27.8066	-0.153422	0.006	-0.754396	0	-0.348813	0	0	0	0	0	0	0	0	0	0
7.07	-21.9591	465.008	-12.5044	-0.301849	0.006	-0.468202	0	2.12148	0	-41.6531	264.696	28.5564	-0.155185	0.006	-0.754667	0	-0.338316	0	0	0	0	0	0	0	0	0	0
7.08	-24.9503	471.422	-14.2483	-0.301406	0.006	-0.467823	0	1.98283	0	-40.2069	272.458	28.6317	-0.156524	0.006	-0.754633	0	-0.280157	0	0	0	0	0	0	0	0	0	0
7.09	-27.3647	477.051	-16.3869	-0.300971	0.006	-0.467275	0	1.97006	0	-41.1077	279.461	27.8236	-0.157436	0.006	-0.754281	0	-0.102127	0	0	0	0	0	0	0	0	0	0
7.1	-30.2534	479.323	-17.5211	-0.300762	0.006	-0.466984	0	2.09163	0	-45.0634	283.884	26.0524	-0.157874	0.006	-0.753527	0	0.104602	0	0	0	0	0	0	0	0	0	0
7.11	-32.9649	477.552	-16.9127	-0.30104	0.006	-0.467111	0	2.28565	0	-49.791	283.114	23.2162	-0.158018	0.006	-0.752522	0	0.328006	0	0	0	0	0	0	0	0	0	0
7.12	-35.0673	475.437	-14.6547	-0.301743	0.006	-0.467649	0	2.51595	0	-53.2972	277.225	20.131	-0.15799	0.006	-0.751366	0	0.475709	0	0	0	0	0	0	0	0	0	0
7.13	-36.68	474.531	-11.5359	-0.30256	0.006	-0.468233	0	2.74767	0	-55.481	269.068	18.2398	-0.158229	0.006	-0.750571	0	0.476093	0	0	0	0	0	0	0	0	0	0
7.14	-37.8897	473.57	-8.65684	-0.303243	0.006	-0.468741	0	2.88927	0	-56.6898	261.611	17.947	-0.158789	0.006	-0.75035	0	0.332847	0	0	0	0	0	0	0	0	0	0
7.15	-39.5055	472.291	-6.81363	-0.303677	0.006	-0.469262	0	2.93687	0	-57.0733	256.572	18.415	-0.1594	0.006	-0.750257	0	0.0997852	0	0	0	0	0	0	0	0	0	0
7.16	-42.3003	471.008	-6.2493	-0.303882	0.006	-0.469629	0	2.95107	0	-56.7013	253.566	18.2931	-0.160156	0.006	-0.749882	0	-0.109588	0	0	0	0	0	0	0	0	0	0
7.17	-46.0317	468.681	-6.64874	-0.303962	0.006	-0.469742	0	2.99293	0	-56.0368	251.45	17.2925	-0.161068	0.006	-0.749336	0	-0.168599	0	0	0	0	0	0	0	0	0	0
